<svg width="20" height="20" viewBox="0 0 20 20" fill="none" xmlns="http://www.w3.org/2000/svg">
<g id="LinkedIn">
<g id="LinkedIn_2">
<rect id="Rectangle" width="20" height="20" rx="10" fill="#0077B5"/>
<g id="Group">
<path id="Path" d="M15.5522 14.7188C14.896 14.7031 14.2554 14.7031 13.5991 14.7188C13.4585 14.7188 13.4272 14.6875 13.4272 14.5469C13.4272 13.3906 13.4272 12.2188 13.4272 11.0625C13.4272 10.7969 13.4116 10.5313 13.3335 10.2813C13.0991 9.46876 12.1616 9.17189 11.4897 9.71876C11.1304 10 10.9897 10.3906 10.9897 10.8594C10.9897 11.9531 10.9897 13.0469 10.9897 14.1406C10.9897 14.2813 10.9741 14.4219 10.9897 14.5781C11.0054 14.7031 10.9429 14.7344 10.8335 14.7188C10.1616 14.7188 9.50537 14.7188 8.8335 14.7188C8.7085 14.7188 8.67725 14.6875 8.67725 14.5625C8.69287 13.5781 8.69287 12.5938 8.69287 11.5938C8.69287 10.375 8.69287 9.15626 8.67725 7.95314C8.67725 7.81251 8.7085 7.78126 8.8335 7.78126C9.50537 7.78126 10.1616 7.78126 10.8335 7.78126C10.9585 7.78126 10.9897 7.81251 10.9897 7.93751C10.9897 8.18751 10.9897 8.43751 10.9897 8.73439C11.0366 8.68751 11.0522 8.67189 11.0679 8.65626C11.6772 7.76564 12.5366 7.51564 13.5522 7.67189C14.7241 7.85939 15.4741 8.67189 15.6616 9.92189C15.7085 10.2188 15.7241 10.5156 15.7241 10.8125C15.7241 12.0625 15.7241 13.2969 15.7241 14.5469C15.7241 14.6719 15.6929 14.7188 15.5522 14.7188Z" fill="white"/>
<path id="Path_2" d="M7.42725 11.25C7.42725 12.3438 7.42725 13.4375 7.42725 14.5312C7.42725 14.6719 7.396 14.7188 7.25537 14.7188C6.59912 14.7031 5.94287 14.7188 5.28662 14.7188C5.16162 14.7188 5.13037 14.6875 5.13037 14.5625C5.13037 12.3594 5.13037 10.1406 5.13037 7.9375C5.13037 7.82812 5.16162 7.78125 5.28662 7.78125C5.9585 7.78125 6.63037 7.78125 7.30225 7.78125C7.44287 7.78125 7.4585 7.82812 7.4585 7.95312C7.42725 9.04688 7.42725 10.1406 7.42725 11.25Z" fill="white"/>
<path id="Path_3" d="M7.53652 5.96876C7.38027 6.59376 6.73964 6.95313 6.00527 6.82813C5.22402 6.70313 4.78652 5.93751 5.06777 5.18751C5.25527 4.71876 5.70839 4.43751 6.28652 4.45313C7.16152 4.43751 7.73964 5.14063 7.53652 5.96876Z" fill="white"/>
</g>
</g>
</g>
</svg>
