<svg width="20" height="20" viewBox="0 0 20 20" fill="none" xmlns="http://www.w3.org/2000/svg">
<g id="Twitter">
<g id="Twitter_2">
<rect id="Rectangle" width="20" height="20" rx="10" fill="#1DA1F2"/>
<path id="Path" d="M14.9011 7.83853C14.9011 7.94791 14.9011 8.05728 14.9011 8.15103C14.9011 11.3854 12.4324 15.1198 7.93237 15.1198C6.54175 15.1198 5.2605 14.7135 4.16675 14.026C4.35425 14.0417 4.55737 14.0573 4.74487 14.0573C5.8855 14.0573 6.948 13.6667 7.79175 13.0104C6.71362 12.9948 5.80737 12.276 5.5105 11.3073C5.66675 11.3385 5.80737 11.3542 5.97925 11.3542C6.198 11.3542 6.41675 11.3229 6.61987 11.2604C5.49487 11.0417 4.65112 10.0573 4.65112 8.86978C4.65112 8.85416 4.65112 8.85416 4.65112 8.83853C4.97925 9.02603 5.35425 9.13541 5.7605 9.15103C5.10425 8.71353 4.66675 7.96353 4.66675 7.10416C4.66675 6.65103 4.79175 6.22916 4.99487 5.86978C6.198 7.35416 8.0105 8.32291 10.0417 8.43228C9.99487 8.26041 9.97925 8.05728 9.97925 7.86978C9.97925 6.51041 11.073 5.41666 12.4324 5.41666C13.1355 5.41666 13.7761 5.71353 14.2136 6.18228C14.7761 6.07291 15.2917 5.86978 15.7761 5.58853C15.5886 6.16666 15.198 6.63541 14.698 6.94791C15.198 6.88541 15.6667 6.76041 16.1042 6.55728C15.7917 7.05728 15.3855 7.49478 14.9011 7.83853Z" fill="white"/>
</g>
</g>
</svg>
